<?xml version="1.0" encoding="UTF-8" standalone="no"?>
<!DOCTYPE svg PUBLIC "-//W3C//DTD SVG 1.1//EN"
 "http://www.w3.org/Graphics/SVG/1.1/DTD/svg11.dtd">
<!-- Generated by graphviz version 2.38.0 (20140413.2041)
 -->
<!-- Title: bcm Pages: 1 -->
<svg width="912pt" height="332pt"
 viewBox="0.00 0.00 911.74 332.00" xmlns="http://www.w3.org/2000/svg" xmlns:xlink="http://www.w3.org/1999/xlink">
<g id="graph0" class="graph" transform="scale(1 1) rotate(0) translate(4 328)">
<title>bcm</title>
<polygon fill="white" stroke="none" points="-4,4 -4,-328 907.741,-328 907.741,4 -4,4"/>
<!-- BCM3368 -->
<g id="node1" class="node"><title>BCM3368</title>
<ellipse fill="none" stroke="black" cx="48.0957" cy="-234" rx="48.1917" ry="18"/>
<text text-anchor="middle" x="48.0957" y="-230.3" font-family="Times,serif" font-size="14.00">BCM3368</text>
</g>
<!-- BCM6345 -->
<g id="node2" class="node"><title>BCM6345</title>
<ellipse fill="none" stroke="black" cx="447.096" cy="-306" rx="48.1917" ry="18"/>
<text text-anchor="middle" x="447.096" y="-302.3" font-family="Times,serif" font-size="14.00">BCM6345</text>
</g>
<!-- BCM3368&#45;&gt;BCM6345 -->
<g id="edge1" class="edge"><title>BCM3368&#45;&gt;BCM6345</title>
<path fill="none" stroke="black" d="M83.4737,-246.364C90.5872,-248.418 98.0442,-250.41 105.096,-252 205.028,-274.535 323.548,-290.562 391.57,-298.754"/>
<polygon fill="black" stroke="black" points="391.294,-302.246 401.638,-299.954 392.122,-295.295 391.294,-302.246"/>
</g>
<!-- BCM6338 -->
<g id="node3" class="node"><title>BCM6338</title>
<ellipse fill="none" stroke="black" cx="162.096" cy="-234" rx="48.1917" ry="18"/>
<text text-anchor="middle" x="162.096" y="-230.3" font-family="Times,serif" font-size="14.00">BCM6338</text>
</g>
<!-- BCM6338&#45;&gt;BCM6345 -->
<g id="edge2" class="edge"><title>BCM6338&#45;&gt;BCM6345</title>
<path fill="none" stroke="black" d="M197.88,-246.038C204.893,-248.098 212.208,-250.174 219.096,-252 279.663,-268.055 349.98,-283.997 396.332,-294.137"/>
<polygon fill="black" stroke="black" points="395.618,-297.564 406.134,-296.274 397.109,-290.724 395.618,-297.564"/>
</g>
<!-- BCM6348 -->
<g id="node4" class="node"><title>BCM6348</title>
<ellipse fill="none" stroke="black" cx="276.096" cy="-234" rx="48.1917" ry="18"/>
<text text-anchor="middle" x="276.096" y="-230.3" font-family="Times,serif" font-size="14.00">BCM6348</text>
</g>
<!-- BCM6348&#45;&gt;BCM6345 -->
<g id="edge3" class="edge"><title>BCM6348&#45;&gt;BCM6345</title>
<path fill="none" stroke="black" d="M307.46,-247.839C335.301,-259.236 376.151,-275.958 406.482,-288.375"/>
<polygon fill="black" stroke="black" points="405.35,-291.693 415.931,-292.242 408.002,-285.215 405.35,-291.693"/>
</g>
<!-- BCM6318 -->
<g id="node5" class="node"><title>BCM6318</title>
<ellipse fill="none" stroke="black" cx="390.096" cy="-234" rx="48.1917" ry="18"/>
<text text-anchor="middle" x="390.096" y="-230.3" font-family="Times,serif" font-size="14.00">BCM6318</text>
</g>
<!-- BCM6318&#45;&gt;BCM6345 -->
<g id="edge4" class="edge"><title>BCM6318&#45;&gt;BCM6345</title>
<path fill="none" stroke="black" d="M403.604,-251.589C410.632,-260.219 419.359,-270.938 427.148,-280.503"/>
<polygon fill="black" stroke="black" points="424.656,-282.986 433.684,-288.53 430.084,-278.566 424.656,-282.986"/>
</g>
<!-- BCM6328 -->
<g id="node6" class="node"><title>BCM6328</title>
<ellipse fill="none" stroke="black" cx="447.096" cy="-162" rx="48.1917" ry="18"/>
<text text-anchor="middle" x="447.096" y="-158.3" font-family="Times,serif" font-size="14.00">BCM6328</text>
</g>
<!-- BCM6368 -->
<g id="node7" class="node"><title>BCM6368</title>
<ellipse fill="none" stroke="black" cx="504.096" cy="-234" rx="48.1917" ry="18"/>
<text text-anchor="middle" x="504.096" y="-230.3" font-family="Times,serif" font-size="14.00">BCM6368</text>
</g>
<!-- BCM6328&#45;&gt;BCM6368 -->
<g id="edge5" class="edge"><title>BCM6328&#45;&gt;BCM6368</title>
<path fill="none" stroke="black" d="M460.604,-179.589C467.632,-188.219 476.359,-198.938 484.148,-208.503"/>
<polygon fill="black" stroke="black" points="481.656,-210.986 490.684,-216.53 487.084,-206.566 481.656,-210.986"/>
</g>
<!-- BCM6368&#45;&gt;BCM6345 -->
<g id="edge12" class="edge"><title>BCM6368&#45;&gt;BCM6345</title>
<path fill="none" stroke="black" d="M490.588,-251.589C483.56,-260.219 474.832,-270.938 467.043,-280.503"/>
<polygon fill="black" stroke="black" points="464.107,-278.566 460.507,-288.53 469.535,-282.986 464.107,-278.566"/>
</g>
<!-- BCM63268 -->
<g id="node8" class="node"><title>BCM63268</title>
<ellipse fill="none" stroke="black" cx="328.096" cy="-90" rx="52.7911" ry="18"/>
<text text-anchor="middle" x="328.096" y="-86.3" font-family="Times,serif" font-size="14.00">BCM63268</text>
</g>
<!-- BCM63268&#45;&gt;BCM6328 -->
<g id="edge6" class="edge"><title>BCM63268&#45;&gt;BCM6328</title>
<path fill="none" stroke="black" d="M353.333,-105.845C370.884,-116.17 394.47,-130.043 413.594,-141.293"/>
<polygon fill="black" stroke="black" points="411.909,-144.363 422.303,-146.416 415.459,-138.329 411.909,-144.363"/>
</g>
<!-- BCM63168 -->
<g id="node9" class="node"><title>BCM63168</title>
<ellipse fill="none" stroke="black" cx="205.096" cy="-18" rx="52.7911" ry="18"/>
<text text-anchor="middle" x="205.096" y="-14.3" font-family="Times,serif" font-size="14.00">BCM63168</text>
</g>
<!-- BCM63168&#45;&gt;BCM63268 -->
<g id="edge7" class="edge"><title>BCM63168&#45;&gt;BCM63268</title>
<path fill="none" stroke="black" d="M231.181,-33.8452C249.282,-44.1467 273.593,-57.9819 293.337,-69.2184"/>
<polygon fill="black" stroke="black" points="291.626,-72.2719 302.048,-74.1762 295.088,-66.1881 291.626,-72.2719"/>
</g>
<!-- BCM63169 -->
<g id="node10" class="node"><title>BCM63169</title>
<ellipse fill="none" stroke="black" cx="328.096" cy="-18" rx="52.7911" ry="18"/>
<text text-anchor="middle" x="328.096" y="-14.3" font-family="Times,serif" font-size="14.00">BCM63169</text>
</g>
<!-- BCM63169&#45;&gt;BCM63268 -->
<g id="edge8" class="edge"><title>BCM63169&#45;&gt;BCM63268</title>
<path fill="none" stroke="black" d="M328.096,-36.3034C328.096,-44.0173 328.096,-53.2875 328.096,-61.8876"/>
<polygon fill="black" stroke="black" points="324.596,-61.8956 328.096,-71.8957 331.596,-61.8957 324.596,-61.8956"/>
</g>
<!-- BCM63269 -->
<g id="node11" class="node"><title>BCM63269</title>
<ellipse fill="none" stroke="black" cx="451.096" cy="-18" rx="52.7911" ry="18"/>
<text text-anchor="middle" x="451.096" y="-14.3" font-family="Times,serif" font-size="14.00">BCM63269</text>
</g>
<!-- BCM63269&#45;&gt;BCM63268 -->
<g id="edge9" class="edge"><title>BCM63269&#45;&gt;BCM63268</title>
<path fill="none" stroke="black" d="M425.011,-33.8452C406.909,-44.1467 382.599,-57.9819 362.855,-69.2184"/>
<polygon fill="black" stroke="black" points="361.103,-66.1881 354.143,-74.1762 364.566,-72.2719 361.103,-66.1881"/>
</g>
<!-- BCM6358 -->
<g id="node12" class="node"><title>BCM6358</title>
<ellipse fill="none" stroke="black" cx="276.096" cy="-162" rx="48.1917" ry="18"/>
<text text-anchor="middle" x="276.096" y="-158.3" font-family="Times,serif" font-size="14.00">BCM6358</text>
</g>
<!-- BCM6358&#45;&gt;BCM6348 -->
<g id="edge10" class="edge"><title>BCM6358&#45;&gt;BCM6348</title>
<path fill="none" stroke="black" d="M276.096,-180.303C276.096,-188.017 276.096,-197.288 276.096,-205.888"/>
<polygon fill="black" stroke="black" points="272.596,-205.896 276.096,-215.896 279.596,-205.896 272.596,-205.896"/>
</g>
<!-- BCM6362 -->
<g id="node13" class="node"><title>BCM6362</title>
<ellipse fill="none" stroke="black" cx="618.096" cy="-234" rx="48.1917" ry="18"/>
<text text-anchor="middle" x="618.096" y="-230.3" font-family="Times,serif" font-size="14.00">BCM6362</text>
</g>
<!-- BCM6362&#45;&gt;BCM6345 -->
<g id="edge11" class="edge"><title>BCM6362&#45;&gt;BCM6345</title>
<path fill="none" stroke="black" d="M586.732,-247.839C558.891,-259.236 518.04,-275.958 487.709,-288.375"/>
<polygon fill="black" stroke="black" points="486.19,-285.215 478.261,-292.242 488.842,-291.693 486.19,-285.215"/>
</g>
<!-- BCM6369 -->
<g id="node14" class="node"><title>BCM6369</title>
<ellipse fill="none" stroke="black" cx="561.096" cy="-162" rx="48.1917" ry="18"/>
<text text-anchor="middle" x="561.096" y="-158.3" font-family="Times,serif" font-size="14.00">BCM6369</text>
</g>
<!-- BCM6369&#45;&gt;BCM6368 -->
<g id="edge13" class="edge"><title>BCM6369&#45;&gt;BCM6368</title>
<path fill="none" stroke="black" d="M547.588,-179.589C540.56,-188.219 531.832,-198.938 524.043,-208.503"/>
<polygon fill="black" stroke="black" points="521.107,-206.566 517.507,-216.53 526.535,-210.986 521.107,-206.566"/>
</g>
<!-- BCM6816 -->
<g id="node15" class="node"><title>BCM6816</title>
<ellipse fill="none" stroke="black" cx="732.096" cy="-234" rx="48.1917" ry="18"/>
<text text-anchor="middle" x="732.096" y="-230.3" font-family="Times,serif" font-size="14.00">BCM6816</text>
</g>
<!-- BCM6816&#45;&gt;BCM6345 -->
<g id="edge14" class="edge"><title>BCM6816&#45;&gt;BCM6345</title>
<path fill="none" stroke="black" d="M696.311,-246.038C689.299,-248.098 681.983,-250.174 675.096,-252 614.528,-268.055 544.211,-283.997 497.86,-294.137"/>
<polygon fill="black" stroke="black" points="497.083,-290.724 488.057,-296.274 498.573,-297.564 497.083,-290.724"/>
</g>
<!-- BCM6828 -->
<g id="node16" class="node"><title>BCM6828</title>
<ellipse fill="none" stroke="black" cx="447.096" cy="-90" rx="48.1917" ry="18"/>
<text text-anchor="middle" x="447.096" y="-86.3" font-family="Times,serif" font-size="14.00">BCM6828</text>
</g>
<!-- BCM6828&#45;&gt;BCM6328 -->
<g id="edge15" class="edge"><title>BCM6828&#45;&gt;BCM6328</title>
<path fill="none" stroke="black" d="M447.096,-108.303C447.096,-116.017 447.096,-125.288 447.096,-133.888"/>
<polygon fill="black" stroke="black" points="443.596,-133.896 447.096,-143.896 450.596,-133.896 443.596,-133.896"/>
</g>
<!-- BCM68220 -->
<g id="node17" class="node"><title>BCM68220</title>
<ellipse fill="none" stroke="black" cx="566.096" cy="-90" rx="52.7911" ry="18"/>
<text text-anchor="middle" x="566.096" y="-86.3" font-family="Times,serif" font-size="14.00">BCM68220</text>
</g>
<!-- BCM68220&#45;&gt;BCM6328 -->
<g id="edge16" class="edge"><title>BCM68220&#45;&gt;BCM6328</title>
<path fill="none" stroke="black" d="M540.859,-105.845C523.307,-116.17 499.722,-130.043 480.597,-141.293"/>
<polygon fill="black" stroke="black" points="478.733,-138.329 471.888,-146.416 482.282,-144.363 478.733,-138.329"/>
</g>
<!-- BCM68280 -->
<g id="node18" class="node"><title>BCM68280</title>
<ellipse fill="none" stroke="black" cx="851.096" cy="-234" rx="52.7911" ry="18"/>
<text text-anchor="middle" x="851.096" y="-230.3" font-family="Times,serif" font-size="14.00">BCM68280</text>
</g>
<!-- BCM68280&#45;&gt;BCM6345 -->
<g id="edge17" class="edge"><title>BCM68280&#45;&gt;BCM6345</title>
<path fill="none" stroke="black" d="M812.567,-246.294C804.833,-248.355 796.736,-250.366 789.096,-252 688.78,-273.453 570.15,-289.865 502.255,-298.418"/>
<polygon fill="black" stroke="black" points="501.699,-294.96 492.21,-299.672 502.566,-301.906 501.699,-294.96"/>
</g>
</g>
</svg>
