<?xml version="1.0" encoding="UTF-8" standalone="no"?>
<!DOCTYPE svg PUBLIC "-//W3C//DTD SVG 1.1//EN"
 "http://www.w3.org/Graphics/SVG/1.1/DTD/svg11.dtd">
<!-- Generated by graphviz version 2.38.0 (20140413.2041)
 -->
<!-- Title: bcm Pages: 1 -->
<svg width="684pt" height="620pt"
 viewBox="0.00 0.00 684.19 620.00" xmlns="http://www.w3.org/2000/svg" xmlns:xlink="http://www.w3.org/1999/xlink">
<g id="graph0" class="graph" transform="scale(1 1) rotate(0) translate(4 616)">
<title>bcm</title>
<polygon fill="white" stroke="none" points="-4,4 -4,-616 680.191,-616 680.191,4 -4,4"/>
<!-- BCM2836 -->
<g id="node1" class="node"><title>BCM2836</title>
<ellipse fill="none" stroke="black" cx="54.0957" cy="-18" rx="48.1917" ry="18"/>
<text text-anchor="middle" x="54.0957" y="-14.3" font-family="Times,serif" font-size="14.00">BCM2836</text>
</g>
<!-- BCM2835 -->
<g id="node2" class="node"><title>BCM2835</title>
<ellipse fill="none" stroke="black" cx="54.0957" cy="-90" rx="48.1917" ry="18"/>
<text text-anchor="middle" x="54.0957" y="-86.3" font-family="Times,serif" font-size="14.00">BCM2835</text>
</g>
<!-- BCM2836&#45;&gt;BCM2835 -->
<g id="edge1" class="edge"><title>BCM2836&#45;&gt;BCM2835</title>
<path fill="none" stroke="black" d="M54.0957,-36.3034C54.0957,-44.0173 54.0957,-53.2875 54.0957,-61.8876"/>
<polygon fill="black" stroke="black" points="50.5958,-61.8956 54.0957,-71.8957 57.5958,-61.8957 50.5958,-61.8956"/>
</g>
<!-- ARM -->
<g id="node3" class="node"><title>ARM</title>
<ellipse fill="none" stroke="black" cx="65.0957" cy="-162" rx="31.3957" ry="18"/>
<text text-anchor="middle" x="65.0957" y="-158.3" font-family="Times,serif" font-size="14.00">ARM</text>
</g>
<!-- BCM2835&#45;&gt;ARM -->
<g id="edge2" class="edge"><title>BCM2835&#45;&gt;ARM</title>
<path fill="none" stroke="black" d="M56.8148,-108.303C58.027,-116.017 59.4838,-125.288 60.8352,-133.888"/>
<polygon fill="black" stroke="black" points="57.3979,-134.56 62.4079,-143.896 64.313,-133.474 57.3979,-134.56"/>
</g>
<!-- BCM3368 -->
<g id="node4" class="node"><title>BCM3368</title>
<ellipse fill="none" stroke="black" cx="58.0957" cy="-378" rx="48.1917" ry="18"/>
<text text-anchor="middle" x="58.0957" y="-374.3" font-family="Times,serif" font-size="14.00">BCM3368</text>
</g>
<!-- BCM6348 -->
<g id="node5" class="node"><title>BCM6348</title>
<ellipse fill="none" stroke="black" cx="286.096" cy="-450" rx="48.1917" ry="18"/>
<text text-anchor="middle" x="286.096" y="-446.3" font-family="Times,serif" font-size="14.00">BCM6348</text>
</g>
<!-- BCM3368&#45;&gt;BCM6348 -->
<g id="edge3" class="edge"><title>BCM3368&#45;&gt;BCM6348</title>
<path fill="none" stroke="black" d="M93.9715,-390.015C133.528,-402.159 197.265,-421.728 240.376,-434.963"/>
<polygon fill="black" stroke="black" points="239.466,-438.345 250.053,-437.934 241.521,-431.653 239.466,-438.345"/>
</g>
<!-- BCM6345 -->
<g id="node11" class="node"><title>BCM6345</title>
<ellipse fill="none" stroke="black" cx="226.096" cy="-522" rx="48.1917" ry="18"/>
<text text-anchor="middle" x="226.096" y="-518.3" font-family="Times,serif" font-size="14.00">BCM6345</text>
</g>
<!-- BCM6348&#45;&gt;BCM6345 -->
<g id="edge8" class="edge"><title>BCM6348&#45;&gt;BCM6345</title>
<path fill="none" stroke="black" d="M272.18,-467.235C264.715,-475.944 255.364,-486.853 247.04,-496.565"/>
<polygon fill="black" stroke="black" points="244.203,-494.496 240.353,-504.367 249.518,-499.052 244.203,-494.496"/>
</g>
<!-- BCM3341 -->
<g id="node6" class="node"><title>BCM3341</title>
<ellipse fill="none" stroke="black" cx="628.096" cy="-378" rx="48.1917" ry="18"/>
<text text-anchor="middle" x="628.096" y="-374.3" font-family="Times,serif" font-size="14.00">BCM3341</text>
</g>
<!-- BCM3348 -->
<g id="node7" class="node"><title>BCM3348</title>
<ellipse fill="none" stroke="black" cx="628.096" cy="-450" rx="48.1917" ry="18"/>
<text text-anchor="middle" x="628.096" y="-446.3" font-family="Times,serif" font-size="14.00">BCM3348</text>
</g>
<!-- BCM3341&#45;&gt;BCM3348 -->
<g id="edge4" class="edge"><title>BCM3341&#45;&gt;BCM3348</title>
<path fill="none" stroke="black" d="M628.096,-396.303C628.096,-404.017 628.096,-413.288 628.096,-421.888"/>
<polygon fill="black" stroke="black" points="624.596,-421.896 628.096,-431.896 631.596,-421.896 624.596,-421.896"/>
</g>
<!-- BCM6335 -->
<g id="node8" class="node"><title>BCM6335</title>
<ellipse fill="none" stroke="black" cx="514.096" cy="-522" rx="48.1917" ry="18"/>
<text text-anchor="middle" x="514.096" y="-518.3" font-family="Times,serif" font-size="14.00">BCM6335</text>
</g>
<!-- BCM3348&#45;&gt;BCM6335 -->
<g id="edge5" class="edge"><title>BCM3348&#45;&gt;BCM6335</title>
<path fill="none" stroke="black" d="M604.198,-465.674C587.477,-475.941 564.941,-489.779 546.591,-501.047"/>
<polygon fill="black" stroke="black" points="544.653,-498.13 537.962,-506.345 548.316,-504.095 544.653,-498.13"/>
</g>
<!-- MIPS -->
<g id="node9" class="node"><title>MIPS</title>
<ellipse fill="none" stroke="black" cx="399.096" cy="-594" rx="31.6951" ry="18"/>
<text text-anchor="middle" x="399.096" y="-590.3" font-family="Times,serif" font-size="14.00">MIPS</text>
</g>
<!-- BCM6335&#45;&gt;MIPS -->
<g id="edge6" class="edge"><title>BCM6335&#45;&gt;MIPS</title>
<path fill="none" stroke="black" d="M489.988,-537.674C472.135,-548.542 447.708,-563.41 428.674,-574.996"/>
<polygon fill="black" stroke="black" points="426.805,-572.036 420.083,-580.225 430.445,-578.015 426.805,-572.036"/>
</g>
<!-- BCM6341 -->
<g id="node10" class="node"><title>BCM6341</title>
<ellipse fill="none" stroke="black" cx="172.096" cy="-378" rx="48.1917" ry="18"/>
<text text-anchor="middle" x="172.096" y="-374.3" font-family="Times,serif" font-size="14.00">BCM6341</text>
</g>
<!-- BCM6341&#45;&gt;BCM6348 -->
<g id="edge7" class="edge"><title>BCM6341&#45;&gt;BCM6348</title>
<path fill="none" stroke="black" d="M195.994,-393.674C212.714,-403.941 235.25,-417.779 253.601,-429.047"/>
<polygon fill="black" stroke="black" points="251.876,-432.095 262.229,-434.345 255.539,-426.13 251.876,-432.095"/>
</g>
<!-- BCM6345&#45;&gt;MIPS -->
<g id="edge9" class="edge"><title>BCM6345&#45;&gt;MIPS</title>
<path fill="none" stroke="black" d="M257.425,-535.676C287.561,-547.87 333.032,-566.269 364.286,-578.915"/>
<polygon fill="black" stroke="black" points="363.313,-582.297 373.896,-582.804 365.939,-575.808 363.313,-582.297"/>
</g>
<!-- BCM63168 -->
<g id="node12" class="node"><title>BCM63168</title>
<ellipse fill="none" stroke="black" cx="173.096" cy="-90" rx="52.7911" ry="18"/>
<text text-anchor="middle" x="173.096" y="-86.3" font-family="Times,serif" font-size="14.00">BCM63168</text>
</g>
<!-- BCM63168&#45;&gt;ARM -->
<g id="edge10" class="edge"><title>BCM63168&#45;&gt;ARM</title>
<path fill="none" stroke="black" d="M149.661,-106.189C133.284,-116.804 111.314,-131.044 93.8724,-142.348"/>
<polygon fill="black" stroke="black" points="91.7057,-139.582 85.2178,-147.958 95.513,-145.456 91.7057,-139.582"/>
</g>
<!-- BCM63268 -->
<g id="node14" class="node"><title>BCM63268</title>
<ellipse fill="none" stroke="black" cx="409.096" cy="-162" rx="52.7911" ry="18"/>
<text text-anchor="middle" x="409.096" y="-158.3" font-family="Times,serif" font-size="14.00">BCM63268</text>
</g>
<!-- BCM63168&#45;&gt;BCM63268 -->
<g id="edge13" class="edge"><title>BCM63168&#45;&gt;BCM63268</title>
<path fill="none" stroke="black" d="M211.538,-102.403C252.338,-114.504 316.891,-133.651 361.025,-146.742"/>
<polygon fill="black" stroke="black" points="360.087,-150.114 370.669,-149.602 362.078,-143.403 360.087,-150.114"/>
</g>
<!-- BCM6318 -->
<g id="node13" class="node"><title>BCM6318</title>
<ellipse fill="none" stroke="black" cx="415.096" cy="-90" rx="48.1917" ry="18"/>
<text text-anchor="middle" x="415.096" y="-86.3" font-family="Times,serif" font-size="14.00">BCM6318</text>
</g>
<!-- BCM6318&#45;&gt;BCM63268 -->
<g id="edge11" class="edge"><title>BCM6318&#45;&gt;BCM63268</title>
<path fill="none" stroke="black" d="M413.613,-108.303C412.951,-116.017 412.157,-125.288 411.42,-133.888"/>
<polygon fill="black" stroke="black" points="407.929,-133.633 410.562,-143.896 414.903,-134.231 407.929,-133.633"/>
</g>
<!-- BCM6328 -->
<g id="node15" class="node"><title>BCM6328</title>
<ellipse fill="none" stroke="black" cx="286.096" cy="-234" rx="48.1917" ry="18"/>
<text text-anchor="middle" x="286.096" y="-230.3" font-family="Times,serif" font-size="14.00">BCM6328</text>
</g>
<!-- BCM63268&#45;&gt;BCM6328 -->
<g id="edge12" class="edge"><title>BCM63268&#45;&gt;BCM6328</title>
<path fill="none" stroke="black" d="M383.011,-177.845C364.665,-188.286 339.941,-202.356 320.057,-213.672"/>
<polygon fill="black" stroke="black" points="318.262,-210.667 311.302,-218.655 321.724,-216.751 318.262,-210.667"/>
</g>
<!-- BCM6368 -->
<g id="node18" class="node"><title>BCM6368</title>
<ellipse fill="none" stroke="black" cx="400.096" cy="-306" rx="48.1917" ry="18"/>
<text text-anchor="middle" x="400.096" y="-302.3" font-family="Times,serif" font-size="14.00">BCM6368</text>
</g>
<!-- BCM6328&#45;&gt;BCM6368 -->
<g id="edge16" class="edge"><title>BCM6328&#45;&gt;BCM6368</title>
<path fill="none" stroke="black" d="M309.994,-249.674C326.714,-259.941 349.25,-273.779 367.601,-285.047"/>
<polygon fill="black" stroke="black" points="365.876,-288.095 376.229,-290.345 369.539,-282.13 365.876,-288.095"/>
</g>
<!-- BCM63169 -->
<g id="node16" class="node"><title>BCM63169</title>
<ellipse fill="none" stroke="black" cx="534.096" cy="-90" rx="52.7911" ry="18"/>
<text text-anchor="middle" x="534.096" y="-86.3" font-family="Times,serif" font-size="14.00">BCM63169</text>
</g>
<!-- BCM63169&#45;&gt;BCM63268 -->
<g id="edge14" class="edge"><title>BCM63169&#45;&gt;BCM63268</title>
<path fill="none" stroke="black" d="M507.892,-105.674C489.391,-116.035 464.398,-130.031 444.179,-141.354"/>
<polygon fill="black" stroke="black" points="442.28,-138.405 435.265,-146.345 445.701,-144.513 442.28,-138.405"/>
</g>
<!-- BCM63269 -->
<g id="node17" class="node"><title>BCM63269</title>
<ellipse fill="none" stroke="black" cx="296.096" cy="-90" rx="52.7911" ry="18"/>
<text text-anchor="middle" x="296.096" y="-86.3" font-family="Times,serif" font-size="14.00">BCM63269</text>
</g>
<!-- BCM63269&#45;&gt;BCM63268 -->
<g id="edge15" class="edge"><title>BCM63269&#45;&gt;BCM63268</title>
<path fill="none" stroke="black" d="M320.337,-106.017C336.573,-116.074 358.153,-129.443 375.969,-140.479"/>
<polygon fill="black" stroke="black" points="374.55,-143.717 384.894,-146.008 378.237,-137.767 374.55,-143.717"/>
</g>
<!-- BCM6358 -->
<g id="node22" class="node"><title>BCM6358</title>
<ellipse fill="none" stroke="black" cx="400.096" cy="-378" rx="48.1917" ry="18"/>
<text text-anchor="middle" x="400.096" y="-374.3" font-family="Times,serif" font-size="14.00">BCM6358</text>
</g>
<!-- BCM6368&#45;&gt;BCM6358 -->
<g id="edge22" class="edge"><title>BCM6368&#45;&gt;BCM6358</title>
<path fill="none" stroke="black" d="M400.096,-324.303C400.096,-332.017 400.096,-341.288 400.096,-349.888"/>
<polygon fill="black" stroke="black" points="396.596,-349.896 400.096,-359.896 403.596,-349.896 396.596,-349.896"/>
</g>
<!-- BCM6332 -->
<g id="node19" class="node"><title>BCM6332</title>
<ellipse fill="none" stroke="black" cx="514.096" cy="-378" rx="48.1917" ry="18"/>
<text text-anchor="middle" x="514.096" y="-374.3" font-family="Times,serif" font-size="14.00">BCM6332</text>
</g>
<!-- BCM6338 -->
<g id="node20" class="node"><title>BCM6338</title>
<ellipse fill="none" stroke="black" cx="514.096" cy="-450" rx="48.1917" ry="18"/>
<text text-anchor="middle" x="514.096" y="-446.3" font-family="Times,serif" font-size="14.00">BCM6338</text>
</g>
<!-- BCM6332&#45;&gt;BCM6338 -->
<g id="edge17" class="edge"><title>BCM6332&#45;&gt;BCM6338</title>
<path fill="none" stroke="black" d="M514.096,-396.303C514.096,-404.017 514.096,-413.288 514.096,-421.888"/>
<polygon fill="black" stroke="black" points="510.596,-421.896 514.096,-431.896 517.596,-421.896 510.596,-421.896"/>
</g>
<!-- BCM6338&#45;&gt;BCM6335 -->
<g id="edge18" class="edge"><title>BCM6338&#45;&gt;BCM6335</title>
<path fill="none" stroke="black" d="M514.096,-468.303C514.096,-476.017 514.096,-485.288 514.096,-493.888"/>
<polygon fill="black" stroke="black" points="510.596,-493.896 514.096,-503.896 517.596,-493.896 510.596,-493.896"/>
</g>
<!-- BCM6352 -->
<g id="node21" class="node"><title>BCM6352</title>
<ellipse fill="none" stroke="black" cx="286.096" cy="-378" rx="48.1917" ry="18"/>
<text text-anchor="middle" x="286.096" y="-374.3" font-family="Times,serif" font-size="14.00">BCM6352</text>
</g>
<!-- BCM6352&#45;&gt;BCM6348 -->
<g id="edge19" class="edge"><title>BCM6352&#45;&gt;BCM6348</title>
<path fill="none" stroke="black" d="M286.096,-396.303C286.096,-404.017 286.096,-413.288 286.096,-421.888"/>
<polygon fill="black" stroke="black" points="282.596,-421.896 286.096,-431.896 289.596,-421.896 282.596,-421.896"/>
</g>
<!-- BCM6358&#45;&gt;BCM6348 -->
<g id="edge20" class="edge"><title>BCM6358&#45;&gt;BCM6348</title>
<path fill="none" stroke="black" d="M376.198,-393.674C359.477,-403.941 336.941,-417.779 318.591,-429.047"/>
<polygon fill="black" stroke="black" points="316.653,-426.13 309.962,-434.345 320.316,-432.095 316.653,-426.13"/>
</g>
<!-- BCM6362 -->
<g id="node23" class="node"><title>BCM6362</title>
<ellipse fill="none" stroke="black" cx="400.096" cy="-234" rx="48.1917" ry="18"/>
<text text-anchor="middle" x="400.096" y="-230.3" font-family="Times,serif" font-size="14.00">BCM6362</text>
</g>
<!-- BCM6362&#45;&gt;BCM6368 -->
<g id="edge21" class="edge"><title>BCM6362&#45;&gt;BCM6368</title>
<path fill="none" stroke="black" d="M400.096,-252.303C400.096,-260.017 400.096,-269.288 400.096,-277.888"/>
<polygon fill="black" stroke="black" points="396.596,-277.896 400.096,-287.896 403.596,-277.896 396.596,-277.896"/>
</g>
<!-- BCM6369 -->
<g id="node24" class="node"><title>BCM6369</title>
<ellipse fill="none" stroke="black" cx="514.096" cy="-234" rx="48.1917" ry="18"/>
<text text-anchor="middle" x="514.096" y="-230.3" font-family="Times,serif" font-size="14.00">BCM6369</text>
</g>
<!-- BCM6369&#45;&gt;BCM6368 -->
<g id="edge23" class="edge"><title>BCM6369&#45;&gt;BCM6368</title>
<path fill="none" stroke="black" d="M490.198,-249.674C473.477,-259.941 450.941,-273.779 432.591,-285.047"/>
<polygon fill="black" stroke="black" points="430.653,-282.13 423.962,-290.345 434.316,-288.095 430.653,-282.13"/>
</g>
<!-- BCM6816 -->
<g id="node25" class="node"><title>BCM6816</title>
<ellipse fill="none" stroke="black" cx="48.0957" cy="-450" rx="48.1917" ry="18"/>
<text text-anchor="middle" x="48.0957" y="-446.3" font-family="Times,serif" font-size="14.00">BCM6816</text>
</g>
<!-- BCM6816&#45;&gt;BCM6345 -->
<g id="edge24" class="edge"><title>BCM6816&#45;&gt;BCM6345</title>
<path fill="none" stroke="black" d="M79.9186,-463.515C109.19,-475.026 152.771,-492.164 184.732,-504.733"/>
<polygon fill="black" stroke="black" points="183.662,-508.073 194.249,-508.476 186.224,-501.559 183.662,-508.073"/>
</g>
<!-- BCM6828 -->
<g id="node26" class="node"><title>BCM6828</title>
<ellipse fill="none" stroke="black" cx="167.096" cy="-162" rx="48.1917" ry="18"/>
<text text-anchor="middle" x="167.096" y="-158.3" font-family="Times,serif" font-size="14.00">BCM6828</text>
</g>
<!-- BCM6828&#45;&gt;BCM6328 -->
<g id="edge25" class="edge"><title>BCM6828&#45;&gt;BCM6328</title>
<path fill="none" stroke="black" d="M191.753,-177.504C209.384,-187.875 233.317,-201.954 252.666,-213.335"/>
<polygon fill="black" stroke="black" points="251.076,-216.461 261.47,-218.515 254.626,-210.428 251.076,-216.461"/>
</g>
<!-- BCM68220 -->
<g id="node27" class="node"><title>BCM68220</title>
<ellipse fill="none" stroke="black" cx="286.096" cy="-162" rx="52.7911" ry="18"/>
<text text-anchor="middle" x="286.096" y="-158.3" font-family="Times,serif" font-size="14.00">BCM68220</text>
</g>
<!-- BCM68220&#45;&gt;BCM6328 -->
<g id="edge26" class="edge"><title>BCM68220&#45;&gt;BCM6328</title>
<path fill="none" stroke="black" d="M286.096,-180.303C286.096,-188.017 286.096,-197.288 286.096,-205.888"/>
<polygon fill="black" stroke="black" points="282.596,-205.896 286.096,-215.896 289.596,-205.896 282.596,-205.896"/>
</g>
<!-- BCM68280 -->
<g id="node28" class="node"><title>BCM68280</title>
<ellipse fill="none" stroke="black" cx="167.096" cy="-450" rx="52.7911" ry="18"/>
<text text-anchor="middle" x="167.096" y="-446.3" font-family="Times,serif" font-size="14.00">BCM68280</text>
</g>
<!-- BCM68280&#45;&gt;BCM6345 -->
<g id="edge27" class="edge"><title>BCM68280&#45;&gt;BCM6345</title>
<path fill="none" stroke="black" d="M181.078,-467.589C188.426,-476.307 197.569,-487.155 205.692,-496.792"/>
<polygon fill="black" stroke="black" points="203.093,-499.139 212.214,-504.53 208.445,-494.628 203.093,-499.139"/>
</g>
</g>
</svg>
