<?xml version="1.0" encoding="UTF-8" standalone="no"?>
<!DOCTYPE svg PUBLIC "-//W3C//DTD SVG 1.1//EN"
 "http://www.w3.org/Graphics/SVG/1.1/DTD/svg11.dtd">
<!-- Generated by graphviz version 2.38.0 (20140413.2041)
 -->
<!-- Title: bcm Pages: 1 -->
<svg width="1111pt" height="620pt"
 viewBox="0.00 0.00 1110.74 620.00" xmlns="http://www.w3.org/2000/svg" xmlns:xlink="http://www.w3.org/1999/xlink">
<g id="graph0" class="graph" transform="scale(1 1) rotate(0) translate(4 616)">
<title>bcm</title>
<polygon fill="white" stroke="none" points="-4,4 -4,-616 1106.74,-616 1106.74,4 -4,4"/>
<!-- BCM2836 -->
<g id="node1" class="node"><title>BCM2836</title>
<ellipse fill="none" stroke="black" cx="570.096" cy="-18" rx="48.1917" ry="18"/>
<text text-anchor="middle" x="570.096" y="-14.3" font-family="Times,serif" font-size="14.00">BCM2836</text>
</g>
<!-- BCM2835 -->
<g id="node2" class="node"><title>BCM2835</title>
<ellipse fill="none" stroke="black" cx="570.096" cy="-90" rx="48.1917" ry="18"/>
<text text-anchor="middle" x="570.096" y="-86.3" font-family="Times,serif" font-size="14.00">BCM2835</text>
</g>
<!-- BCM2836&#45;&gt;BCM2835 -->
<g id="edge1" class="edge"><title>BCM2836&#45;&gt;BCM2835</title>
<path fill="none" stroke="black" d="M570.096,-36.3034C570.096,-44.0173 570.096,-53.2875 570.096,-61.8876"/>
<polygon fill="black" stroke="black" points="566.596,-61.8956 570.096,-71.8957 573.596,-61.8957 566.596,-61.8956"/>
</g>
<!-- ARM -->
<g id="node3" class="node"><title>ARM</title>
<ellipse fill="none" stroke="black" cx="579.096" cy="-162" rx="31.3957" ry="18"/>
<text text-anchor="middle" x="579.096" y="-158.3" font-family="Times,serif" font-size="14.00">ARM</text>
</g>
<!-- BCM2835&#45;&gt;ARM -->
<g id="edge2" class="edge"><title>BCM2835&#45;&gt;ARM</title>
<path fill="none" stroke="black" d="M572.32,-108.303C573.312,-116.017 574.504,-125.288 575.61,-133.888"/>
<polygon fill="black" stroke="black" points="572.15,-134.424 576.897,-143.896 579.093,-133.531 572.15,-134.424"/>
</g>
<!-- BCM3368 -->
<g id="node4" class="node"><title>BCM3368</title>
<ellipse fill="none" stroke="black" cx="343.096" cy="-378" rx="48.1917" ry="18"/>
<text text-anchor="middle" x="343.096" y="-374.3" font-family="Times,serif" font-size="14.00">BCM3368</text>
</g>
<!-- BCM6348 -->
<g id="node5" class="node"><title>BCM6348</title>
<ellipse fill="none" stroke="black" cx="514.096" cy="-450" rx="48.1917" ry="18"/>
<text text-anchor="middle" x="514.096" y="-446.3" font-family="Times,serif" font-size="14.00">BCM6348</text>
</g>
<!-- BCM3368&#45;&gt;BCM6348 -->
<g id="edge3" class="edge"><title>BCM3368&#45;&gt;BCM6348</title>
<path fill="none" stroke="black" d="M374.46,-391.839C402.301,-403.236 443.151,-419.958 473.482,-432.375"/>
<polygon fill="black" stroke="black" points="472.35,-435.693 482.931,-436.242 475.002,-429.215 472.35,-435.693"/>
</g>
<!-- BCM6345 -->
<g id="node11" class="node"><title>BCM6345</title>
<ellipse fill="none" stroke="black" cx="335.096" cy="-522" rx="48.1917" ry="18"/>
<text text-anchor="middle" x="335.096" y="-518.3" font-family="Times,serif" font-size="14.00">BCM6345</text>
</g>
<!-- BCM6348&#45;&gt;BCM6345 -->
<g id="edge8" class="edge"><title>BCM6348&#45;&gt;BCM6345</title>
<path fill="none" stroke="black" d="M482.094,-463.515C452.658,-475.026 408.833,-492.164 376.692,-504.733"/>
<polygon fill="black" stroke="black" points="375.16,-501.574 367.122,-508.476 377.709,-508.093 375.16,-501.574"/>
</g>
<!-- BCM3341 -->
<g id="node6" class="node"><title>BCM3341</title>
<ellipse fill="none" stroke="black" cx="48.0957" cy="-378" rx="48.1917" ry="18"/>
<text text-anchor="middle" x="48.0957" y="-374.3" font-family="Times,serif" font-size="14.00">BCM3341</text>
</g>
<!-- BCM3348 -->
<g id="node7" class="node"><title>BCM3348</title>
<ellipse fill="none" stroke="black" cx="48.0957" cy="-450" rx="48.1917" ry="18"/>
<text text-anchor="middle" x="48.0957" y="-446.3" font-family="Times,serif" font-size="14.00">BCM3348</text>
</g>
<!-- BCM3341&#45;&gt;BCM3348 -->
<g id="edge4" class="edge"><title>BCM3341&#45;&gt;BCM3348</title>
<path fill="none" stroke="black" d="M48.0957,-396.303C48.0957,-404.017 48.0957,-413.288 48.0957,-421.888"/>
<polygon fill="black" stroke="black" points="44.5958,-421.896 48.0957,-431.896 51.5958,-421.896 44.5958,-421.896"/>
</g>
<!-- BCM6335 -->
<g id="node8" class="node"><title>BCM6335</title>
<ellipse fill="none" stroke="black" cx="162.096" cy="-522" rx="48.1917" ry="18"/>
<text text-anchor="middle" x="162.096" y="-518.3" font-family="Times,serif" font-size="14.00">BCM6335</text>
</g>
<!-- BCM3348&#45;&gt;BCM6335 -->
<g id="edge5" class="edge"><title>BCM3348&#45;&gt;BCM6335</title>
<path fill="none" stroke="black" d="M71.9939,-465.674C88.7142,-475.941 111.25,-489.779 129.601,-501.047"/>
<polygon fill="black" stroke="black" points="127.876,-504.095 138.229,-506.345 131.539,-498.13 127.876,-504.095"/>
</g>
<!-- MIPS -->
<g id="node9" class="node"><title>MIPS</title>
<ellipse fill="none" stroke="black" cx="248.096" cy="-594" rx="31.6951" ry="18"/>
<text text-anchor="middle" x="248.096" y="-590.3" font-family="Times,serif" font-size="14.00">MIPS</text>
</g>
<!-- BCM6335&#45;&gt;MIPS -->
<g id="edge6" class="edge"><title>BCM6335&#45;&gt;MIPS</title>
<path fill="none" stroke="black" d="M181.182,-538.535C193.394,-548.475 209.379,-561.486 222.663,-572.299"/>
<polygon fill="black" stroke="black" points="220.562,-575.102 230.527,-578.7 224.981,-569.673 220.562,-575.102"/>
</g>
<!-- BCM6341 -->
<g id="node10" class="node"><title>BCM6341</title>
<ellipse fill="none" stroke="black" cx="457.096" cy="-378" rx="48.1917" ry="18"/>
<text text-anchor="middle" x="457.096" y="-374.3" font-family="Times,serif" font-size="14.00">BCM6341</text>
</g>
<!-- BCM6341&#45;&gt;BCM6348 -->
<g id="edge7" class="edge"><title>BCM6341&#45;&gt;BCM6348</title>
<path fill="none" stroke="black" d="M470.604,-395.589C477.632,-404.219 486.359,-414.938 494.148,-424.503"/>
<polygon fill="black" stroke="black" points="491.656,-426.986 500.684,-432.53 497.084,-422.566 491.656,-426.986"/>
</g>
<!-- BCM6345&#45;&gt;MIPS -->
<g id="edge9" class="edge"><title>BCM6345&#45;&gt;MIPS</title>
<path fill="none" stroke="black" d="M315.788,-538.535C303.351,-548.542 287.045,-561.661 273.554,-572.516"/>
<polygon fill="black" stroke="black" points="271.174,-569.939 265.577,-578.934 275.563,-575.393 271.174,-569.939"/>
</g>
<!-- BCM63881 -->
<g id="node12" class="node"><title>BCM63881</title>
<ellipse fill="none" stroke="black" cx="689.096" cy="-18" rx="52.7911" ry="18"/>
<text text-anchor="middle" x="689.096" y="-14.3" font-family="Times,serif" font-size="14.00">BCM63881</text>
</g>
<!-- BCM63168 -->
<g id="node13" class="node"><title>BCM63168</title>
<ellipse fill="none" stroke="black" cx="689.096" cy="-90" rx="52.7911" ry="18"/>
<text text-anchor="middle" x="689.096" y="-86.3" font-family="Times,serif" font-size="14.00">BCM63168</text>
</g>
<!-- BCM63881&#45;&gt;BCM63168 -->
<g id="edge10" class="edge"><title>BCM63881&#45;&gt;BCM63168</title>
<path fill="none" stroke="black" d="M689.096,-36.3034C689.096,-44.0173 689.096,-53.2875 689.096,-61.8876"/>
<polygon fill="black" stroke="black" points="685.596,-61.8956 689.096,-71.8957 692.596,-61.8957 685.596,-61.8956"/>
</g>
<!-- BCM63168&#45;&gt;ARM -->
<g id="edge11" class="edge"><title>BCM63168&#45;&gt;ARM</title>
<path fill="none" stroke="black" d="M665.227,-106.189C648.439,-116.872 625.881,-131.227 608.062,-142.567"/>
<polygon fill="black" stroke="black" points="605.789,-139.865 599.231,-148.186 609.547,-145.77 605.789,-139.865"/>
</g>
<!-- BCM63268 -->
<g id="node15" class="node"><title>BCM63268</title>
<ellipse fill="none" stroke="black" cx="922.096" cy="-162" rx="52.7911" ry="18"/>
<text text-anchor="middle" x="922.096" y="-158.3" font-family="Times,serif" font-size="14.00">BCM63268</text>
</g>
<!-- BCM63168&#45;&gt;BCM63268 -->
<g id="edge14" class="edge"><title>BCM63168&#45;&gt;BCM63268</title>
<path fill="none" stroke="black" d="M727.31,-102.481C767.435,-114.535 830.619,-133.518 874.083,-146.576"/>
<polygon fill="black" stroke="black" points="873.276,-149.988 883.861,-149.513 875.29,-143.284 873.276,-149.988"/>
</g>
<!-- BCM6318 -->
<g id="node14" class="node"><title>BCM6318</title>
<ellipse fill="none" stroke="black" cx="808.096" cy="-90" rx="48.1917" ry="18"/>
<text text-anchor="middle" x="808.096" y="-86.3" font-family="Times,serif" font-size="14.00">BCM6318</text>
</g>
<!-- BCM6318&#45;&gt;BCM63268 -->
<g id="edge12" class="edge"><title>BCM6318&#45;&gt;BCM63268</title>
<path fill="none" stroke="black" d="M831.994,-105.674C848.49,-115.803 870.646,-129.408 888.859,-140.592"/>
<polygon fill="black" stroke="black" points="887.089,-143.611 897.442,-145.862 890.751,-137.646 887.089,-143.611"/>
</g>
<!-- BCM6328 -->
<g id="node16" class="node"><title>BCM6328</title>
<ellipse fill="none" stroke="black" cx="799.096" cy="-234" rx="48.1917" ry="18"/>
<text text-anchor="middle" x="799.096" y="-230.3" font-family="Times,serif" font-size="14.00">BCM6328</text>
</g>
<!-- BCM63268&#45;&gt;BCM6328 -->
<g id="edge13" class="edge"><title>BCM63268&#45;&gt;BCM6328</title>
<path fill="none" stroke="black" d="M896.011,-177.845C877.665,-188.286 852.941,-202.356 833.057,-213.672"/>
<polygon fill="black" stroke="black" points="831.262,-210.667 824.302,-218.655 834.724,-216.751 831.262,-210.667"/>
</g>
<!-- BCM6368 -->
<g id="node19" class="node"><title>BCM6368</title>
<ellipse fill="none" stroke="black" cx="685.096" cy="-306" rx="48.1917" ry="18"/>
<text text-anchor="middle" x="685.096" y="-302.3" font-family="Times,serif" font-size="14.00">BCM6368</text>
</g>
<!-- BCM6328&#45;&gt;BCM6368 -->
<g id="edge17" class="edge"><title>BCM6328&#45;&gt;BCM6368</title>
<path fill="none" stroke="black" d="M775.198,-249.674C758.477,-259.941 735.941,-273.779 717.591,-285.047"/>
<polygon fill="black" stroke="black" points="715.653,-282.13 708.962,-290.345 719.316,-288.095 715.653,-282.13"/>
</g>
<!-- BCM63169 -->
<g id="node17" class="node"><title>BCM63169</title>
<ellipse fill="none" stroke="black" cx="927.096" cy="-90" rx="52.7911" ry="18"/>
<text text-anchor="middle" x="927.096" y="-86.3" font-family="Times,serif" font-size="14.00">BCM63169</text>
</g>
<!-- BCM63169&#45;&gt;BCM63268 -->
<g id="edge15" class="edge"><title>BCM63169&#45;&gt;BCM63268</title>
<path fill="none" stroke="black" d="M925.86,-108.303C925.309,-116.017 924.647,-125.288 924.032,-133.888"/>
<polygon fill="black" stroke="black" points="920.539,-133.672 923.317,-143.896 927.521,-134.17 920.539,-133.672"/>
</g>
<!-- BCM63269 -->
<g id="node18" class="node"><title>BCM63269</title>
<ellipse fill="none" stroke="black" cx="1050.1" cy="-90" rx="52.7911" ry="18"/>
<text text-anchor="middle" x="1050.1" y="-86.3" font-family="Times,serif" font-size="14.00">BCM63269</text>
</g>
<!-- BCM63269&#45;&gt;BCM63268 -->
<g id="edge16" class="edge"><title>BCM63269&#45;&gt;BCM63268</title>
<path fill="none" stroke="black" d="M1023.26,-105.674C1004.23,-116.081 978.494,-130.157 957.741,-141.506"/>
<polygon fill="black" stroke="black" points="955.988,-138.476 948.893,-146.345 959.346,-144.618 955.988,-138.476"/>
</g>
<!-- BCM6358 -->
<g id="node23" class="node"><title>BCM6358</title>
<ellipse fill="none" stroke="black" cx="685.096" cy="-378" rx="48.1917" ry="18"/>
<text text-anchor="middle" x="685.096" y="-374.3" font-family="Times,serif" font-size="14.00">BCM6358</text>
</g>
<!-- BCM6368&#45;&gt;BCM6358 -->
<g id="edge23" class="edge"><title>BCM6368&#45;&gt;BCM6358</title>
<path fill="none" stroke="black" d="M685.096,-324.303C685.096,-332.017 685.096,-341.288 685.096,-349.888"/>
<polygon fill="black" stroke="black" points="681.596,-349.896 685.096,-359.896 688.596,-349.896 681.596,-349.896"/>
</g>
<!-- BCM6332 -->
<g id="node20" class="node"><title>BCM6332</title>
<ellipse fill="none" stroke="black" cx="162.096" cy="-378" rx="48.1917" ry="18"/>
<text text-anchor="middle" x="162.096" y="-374.3" font-family="Times,serif" font-size="14.00">BCM6332</text>
</g>
<!-- BCM6338 -->
<g id="node21" class="node"><title>BCM6338</title>
<ellipse fill="none" stroke="black" cx="162.096" cy="-450" rx="48.1917" ry="18"/>
<text text-anchor="middle" x="162.096" y="-446.3" font-family="Times,serif" font-size="14.00">BCM6338</text>
</g>
<!-- BCM6332&#45;&gt;BCM6338 -->
<g id="edge18" class="edge"><title>BCM6332&#45;&gt;BCM6338</title>
<path fill="none" stroke="black" d="M162.096,-396.303C162.096,-404.017 162.096,-413.288 162.096,-421.888"/>
<polygon fill="black" stroke="black" points="158.596,-421.896 162.096,-431.896 165.596,-421.896 158.596,-421.896"/>
</g>
<!-- BCM6338&#45;&gt;BCM6335 -->
<g id="edge19" class="edge"><title>BCM6338&#45;&gt;BCM6335</title>
<path fill="none" stroke="black" d="M162.096,-468.303C162.096,-476.017 162.096,-485.288 162.096,-493.888"/>
<polygon fill="black" stroke="black" points="158.596,-493.896 162.096,-503.896 165.596,-493.896 158.596,-493.896"/>
</g>
<!-- BCM6352 -->
<g id="node22" class="node"><title>BCM6352</title>
<ellipse fill="none" stroke="black" cx="571.096" cy="-378" rx="48.1917" ry="18"/>
<text text-anchor="middle" x="571.096" y="-374.3" font-family="Times,serif" font-size="14.00">BCM6352</text>
</g>
<!-- BCM6352&#45;&gt;BCM6348 -->
<g id="edge20" class="edge"><title>BCM6352&#45;&gt;BCM6348</title>
<path fill="none" stroke="black" d="M557.588,-395.589C550.56,-404.219 541.832,-414.938 534.043,-424.503"/>
<polygon fill="black" stroke="black" points="531.107,-422.566 527.507,-432.53 536.535,-426.986 531.107,-422.566"/>
</g>
<!-- BCM6358&#45;&gt;BCM6348 -->
<g id="edge21" class="edge"><title>BCM6358&#45;&gt;BCM6348</title>
<path fill="none" stroke="black" d="M653.732,-391.839C625.891,-403.236 585.04,-419.958 554.709,-432.375"/>
<polygon fill="black" stroke="black" points="553.19,-429.215 545.261,-436.242 555.842,-435.693 553.19,-429.215"/>
</g>
<!-- BCM6362 -->
<g id="node24" class="node"><title>BCM6362</title>
<ellipse fill="none" stroke="black" cx="571.096" cy="-234" rx="48.1917" ry="18"/>
<text text-anchor="middle" x="571.096" y="-230.3" font-family="Times,serif" font-size="14.00">BCM6362</text>
</g>
<!-- BCM6362&#45;&gt;BCM6368 -->
<g id="edge22" class="edge"><title>BCM6362&#45;&gt;BCM6368</title>
<path fill="none" stroke="black" d="M594.994,-249.674C611.714,-259.941 634.25,-273.779 652.601,-285.047"/>
<polygon fill="black" stroke="black" points="650.876,-288.095 661.229,-290.345 654.539,-282.13 650.876,-288.095"/>
</g>
<!-- BCM6369 -->
<g id="node25" class="node"><title>BCM6369</title>
<ellipse fill="none" stroke="black" cx="685.096" cy="-234" rx="48.1917" ry="18"/>
<text text-anchor="middle" x="685.096" y="-230.3" font-family="Times,serif" font-size="14.00">BCM6369</text>
</g>
<!-- BCM6369&#45;&gt;BCM6368 -->
<g id="edge24" class="edge"><title>BCM6369&#45;&gt;BCM6368</title>
<path fill="none" stroke="black" d="M685.096,-252.303C685.096,-260.017 685.096,-269.288 685.096,-277.888"/>
<polygon fill="black" stroke="black" points="681.596,-277.896 685.096,-287.896 688.596,-277.896 681.596,-277.896"/>
</g>
<!-- BCM6816 -->
<g id="node26" class="node"><title>BCM6816</title>
<ellipse fill="none" stroke="black" cx="276.096" cy="-450" rx="48.1917" ry="18"/>
<text text-anchor="middle" x="276.096" y="-446.3" font-family="Times,serif" font-size="14.00">BCM6816</text>
</g>
<!-- BCM6816&#45;&gt;BCM6345 -->
<g id="edge25" class="edge"><title>BCM6816&#45;&gt;BCM6345</title>
<path fill="none" stroke="black" d="M290.078,-467.589C297.426,-476.307 306.569,-487.155 314.692,-496.792"/>
<polygon fill="black" stroke="black" points="312.093,-499.139 321.214,-504.53 317.445,-494.628 312.093,-499.139"/>
</g>
<!-- BCM6828 -->
<g id="node27" class="node"><title>BCM6828</title>
<ellipse fill="none" stroke="black" cx="680.096" cy="-162" rx="48.1917" ry="18"/>
<text text-anchor="middle" x="680.096" y="-158.3" font-family="Times,serif" font-size="14.00">BCM6828</text>
</g>
<!-- BCM6828&#45;&gt;BCM6328 -->
<g id="edge26" class="edge"><title>BCM6828&#45;&gt;BCM6328</title>
<path fill="none" stroke="black" d="M704.753,-177.504C722.384,-187.875 746.317,-201.954 765.666,-213.335"/>
<polygon fill="black" stroke="black" points="764.076,-216.461 774.47,-218.515 767.626,-210.428 764.076,-216.461"/>
</g>
<!-- BCM68220 -->
<g id="node28" class="node"><title>BCM68220</title>
<ellipse fill="none" stroke="black" cx="799.096" cy="-162" rx="52.7911" ry="18"/>
<text text-anchor="middle" x="799.096" y="-158.3" font-family="Times,serif" font-size="14.00">BCM68220</text>
</g>
<!-- BCM68220&#45;&gt;BCM6328 -->
<g id="edge27" class="edge"><title>BCM68220&#45;&gt;BCM6328</title>
<path fill="none" stroke="black" d="M799.096,-180.303C799.096,-188.017 799.096,-197.288 799.096,-205.888"/>
<polygon fill="black" stroke="black" points="795.596,-205.896 799.096,-215.896 802.596,-205.896 795.596,-205.896"/>
</g>
<!-- BCM68280 -->
<g id="node29" class="node"><title>BCM68280</title>
<ellipse fill="none" stroke="black" cx="395.096" cy="-450" rx="52.7911" ry="18"/>
<text text-anchor="middle" x="395.096" y="-446.3" font-family="Times,serif" font-size="14.00">BCM68280</text>
</g>
<!-- BCM68280&#45;&gt;BCM6345 -->
<g id="edge28" class="edge"><title>BCM68280&#45;&gt;BCM6345</title>
<path fill="none" stroke="black" d="M380.877,-467.589C373.404,-476.307 364.106,-487.155 355.845,-496.792"/>
<polygon fill="black" stroke="black" points="353.063,-494.66 349.213,-504.53 358.378,-499.215 353.063,-494.66"/>
</g>
</g>
</svg>
